<?xml version="1.0" standalone="no"?>
<!DOCTYPE svg PUBLIC "-//W3C//DTD SVG 20010904//EN"
 "http://www.w3.org/TR/2001/REC-SVG-20010904/DTD/svg10.dtd">
<svg version="1.0" xmlns="http://www.w3.org/2000/svg"
 width="522.000000pt" height="522.000000pt" viewBox="0 0 522.000000 522.000000"
 preserveAspectRatio="xMidYMid meet">
<metadata>
Created by potrace 1.11, written by Peter Selinger 2001-2013
</metadata>
<g transform="translate(0.000000,522.000000) scale(0.100000,-0.100000)"
fill="#000000" stroke="none">
<path d="M1320 4909 c-111 -13 -242 -53 -355 -109 -334 -166 -577 -491 -666
-895 -26 -116 -36 -370 -20 -487 11 -75 40 -208 47 -217 1 -2 18 14 36 35 60
68 458 443 604 568 171 147 351 284 431 328 70 38 95 35 154 -19 58 -52 99
-117 269 -418 82 -146 156 -274 163 -285 14 -20 15 -19 49 18 45 50 76 116 88
188 10 58 9 60 -35 150 l-46 90 11 95 c13 119 53 207 118 256 58 44 84 49 148
29 40 -13 55 -23 58 -39 21 -100 24 -132 16 -232 -5 -68 -16 -131 -29 -165
l-21 -56 20 -52 c34 -89 25 -110 -52 -126 -22 -5 -35 -24 -77 -110 -86 -175
-184 -256 -309 -256 -69 0 -121 25 -189 90 -68 66 -123 157 -249 411 -62 125
-117 230 -122 233 -24 15 -328 -252 -577 -506 -186 -190 -296 -325 -310 -381
-4 -16 -20 -38 -36 -49 l-29 -21 32 -56 c64 -114 114 -179 217 -282 148 -147
270 -225 447 -285 216 -72 469 -73 685 -3 297 96 564 338 708 642 37 78 101
264 101 290 -1 6 -27 -16 -58 -50 -52 -58 -62 -64 -112 -72 -130 -22 -156 -22
-181 -2 -22 17 -22 20 -7 42 28 43 131 140 261 247 71 58 131 112 134 120 9
22 -14 259 -33 344 -38 174 -122 367 -220 505 -197 276 -490 453 -814 493 -95
11 -142 11 -250 -1z"/>
<path d="M3705 4909 c-248 -33 -478 -150 -666 -338 -180 -181 -299 -402 -355
-661 -16 -79 -32 -330 -20 -330 4 0 37 24 74 53 76 61 446 331 630 460 162
113 339 225 431 272 70 36 75 37 112 25 34 -12 44 -22 71 -77 l31 -63 -29 -68
c-15 -37 -72 -156 -126 -264 -53 -109 -95 -198 -92 -198 3 0 70 46 147 103
379 276 582 404 693 437 36 11 48 10 88 -5 54 -21 62 -39 53 -121 -7 -66 -39
-138 -104 -235 -103 -153 -147 -256 -121 -286 16 -19 69 -16 103 7 38 25 77
26 99 1 32 -35 -10 -90 -99 -127 -55 -23 -214 -53 -298 -56 -84 -3 -102 6
-132 68 -14 29 -14 41 -5 72 16 50 129 264 206 390 34 56 60 102 57 102 -2 0
-102 -78 -221 -173 -388 -308 -549 -410 -654 -409 -40 1 -116 35 -124 56 -13
34 71 257 176 467 39 78 70 143 68 145 -7 6 -381 -250 -546 -374 -167 -127
-247 -192 -389 -321 -96 -86 -95 -82 -58 -220 68 -255 187 -456 371 -630 133
-126 257 -202 420 -257 218 -73 475 -74 685 -4 338 114 611 383 753 743 139
352 119 800 -51 1142 -91 181 -262 383 -408 482 -128 86 -296 157 -431 182
-84 16 -259 21 -339 10z"/>
<path d="M2005 2283 c-468 -41 -826 -129 -1127 -278 -390 -194 -600 -445 -600
-716 0 -449 606 -847 1467 -963 213 -29 384 -36 895 -36 511 0 682 7 895 36
759 102 1335 431 1449 826 21 72 21 204 0 276 -93 325 -497 608 -1079 755
-359 91 -556 107 -1284 105 -317 -1 -594 -3 -616 -5z m1355 -449 c0 -2 -14 -4
-31 -4 -16 0 -28 4 -25 9 5 8 56 3 56 -5z m425 -26 c14 -6 25 -15 25 -20 0
-11 -17 -10 -25 2 -3 6 -15 10 -26 10 -10 0 -19 5 -19 10 0 13 13 13 45 -2z
m-1098 -4 c-3 -3 -12 -4 -19 -1 -8 3 -5 6 6 6 11 1 17 -2 13 -5z m53 -26 c0
-6 6 -19 14 -27 17 -20 56 -248 56 -327 0 -73 -26 -247 -40 -275 -9 -15 -19
-19 -43 -17 -31 3 -32 4 -35 57 -2 29 4 94 13 145 24 135 30 256 16 299 l-13
37 -23 -32 c-41 -57 -58 -90 -86 -178 -30 -92 -42 -106 -82 -96 -19 4 -32 20
-51 61 -39 86 -133 215 -157 215 -4 0 -3 -17 2 -37 4 -21 13 -92 19 -158 6
-66 15 -138 20 -160 5 -22 12 -59 16 -82 5 -39 4 -43 -16 -43 -52 0 -56 10
-64 151 -9 163 -30 332 -50 390 -18 52 -8 69 40 69 30 0 36 -5 58 -47 14 -27
55 -79 91 -118 37 -38 74 -82 82 -99 l15 -30 23 55 c36 88 92 194 120 227 27
32 75 45 75 20z m-1564 -45 c-11 -11 -17 4 -9 23 7 18 8 18 11 1 2 -10 1 -21
-2 -24z m2530 7 c147 -12 164 -16 164 -35 0 -24 -47 -29 -136 -15 -46 7 -86
11 -87 9 -2 -2 -13 -52 -25 -110 -18 -85 -22 -140 -22 -278 l0 -171 -26 -12
c-21 -10 -31 -9 -52 3 -30 17 -30 -4 -11 249 6 85 17 173 25 195 8 22 14 62
14 88 l0 49 -62 -6 c-35 -3 -84 -8 -110 -12 -40 -5 -48 -3 -57 14 -9 18 -7 22
17 30 36 14 209 14 368 2z m-546 -13 c0 -2 -10 -12 -22 -23 l-23 -19 19 23
c18 21 26 27 26 19z m-1430 -22 c0 -8 -4 -15 -10 -15 -5 0 -7 7 -4 15 4 8 8
15 10 15 2 0 4 -7 4 -15z m-351 -9 c8 -9 11 -95 9 -291 -3 -267 -4 -278 -23
-285 -11 -4 -33 -3 -50 1 -25 7 -36 21 -62 78 -42 88 -201 287 -217 270 -8 -8
-10 -225 -2 -266 6 -32 12 -43 26 -43 28 0 35 -19 14 -36 -12 -9 -32 -13 -53
-10 -66 10 -65 9 -71 294 -3 166 -2 260 5 265 5 4 23 6 40 5 27 -3 31 -8 50
-70 18 -60 32 -79 138 -197 65 -72 123 -131 129 -131 7 0 8 20 4 63 -4 34 -9
120 -12 190 -6 124 -6 129 17 153 26 27 41 30 58 10z m2644 -13 c-7 -2 -19 -2
-25 0 -7 3 -2 5 12 5 14 0 19 -2 13 -5z m-1056 -53 c17 -21 16 -32 -3 -28 -9
2 -22 18 -30 37 -13 32 -13 33 3 20 10 -8 23 -21 30 -29z m-1442 20 c-3 -5
-15 -10 -26 -10 -10 0 -19 5 -19 10 0 6 12 10 26 10 14 0 23 -4 19 -10z m377
-22 c-9 -9 -12 -7 -12 12 0 19 3 21 12 12 9 -9 9 -15 0 -24z m608 10 c0 -19
-2 -20 -10 -8 -13 19 -13 30 0 30 6 0 10 -10 10 -22z m920 -35 c0 -20 -3 -24
-11 -16 -7 7 -9 19 -6 27 10 24 17 19 17 -11z m-1300 7 c0 -5 -2 -10 -4 -10
-3 0 -8 5 -11 10 -3 6 -1 10 4 10 6 0 11 -4 11 -10z m730 -11 c0 -6 -4 -7 -10
-4 -5 3 -10 11 -10 16 0 6 5 7 10 4 6 -3 10 -11 10 -16z m420 -11 c0 -5 -5 -8
-11 -8 -7 0 -18 -8 -25 -17 -12 -16 -13 -16 -14 9 0 30 30 55 42 35 4 -7 8
-15 8 -19z m847 -35 c-10 -10 -17 -11 -21 -4 -4 6 -3 11 2 11 5 0 13 10 17 23
6 20 8 20 12 3 3 -10 -2 -25 -10 -33z m-1997 -1 c0 -13 -40 -33 -53 -25 -7 4
-1 11 18 19 37 16 35 16 35 6z m-923 -32 c1 -18 -2 -28 -7 -25 -12 7 -14 55
-2 55 4 0 8 -14 9 -30z m399 6 c15 -12 17 -18 8 -33 -15 -24 -50 -28 -80 -9
-31 21 -30 32 4 44 38 14 45 14 68 -2z m1429 -56 c3 -5 -1 -10 -9 -10 -9 0
-16 5 -16 10 0 6 4 10 9 10 6 0 13 -4 16 -10z m709 -9 c3 -5 0 -14 -8 -20 -8
-7 -12 -21 -9 -31 3 -11 0 -20 -6 -20 -12 0 -15 38 -5 64 7 18 20 21 28 7z
m-2049 -49 c-2 -3 -12 -1 -22 2 -15 6 -15 9 -3 16 13 8 35 -8 25 -18z m1179
-3 c-3 -5 -14 -9 -26 -9 -17 0 -18 3 -8 14 12 15 44 10 34 -5z m-1264 -31 c6
-24 15 -56 20 -73 5 -16 14 -49 20 -72 8 -31 16 -43 29 -43 10 0 24 -7 31 -15
28 -34 -77 -41 -113 -7 -14 13 -30 49 -41 92 -10 38 -24 77 -32 87 -14 19 -18
55 -7 66 3 4 23 7 44 7 37 0 39 -2 49 -42z m1587 17 c35 -21 43 -31 43 -55 0
-21 -8 -33 -34 -49 -27 -17 -50 -21 -125 -21 -91 0 -91 0 -91 -25 0 -51 94
-60 184 -19 54 25 95 26 80 3 -3 -6 -27 -24 -52 -40 -59 -37 -142 -40 -210 -8
-76 37 -93 122 -38 186 49 57 169 71 243 28z m891 8 c88 -7 94 -14 114 -122
12 -69 15 -75 45 -88 36 -14 36 -14 27 -37 -7 -18 -49 -21 -88 -6 -21 7 -33 5
-59 -10 -43 -26 -139 -27 -199 -1 -49 21 -64 35 -73 71 -10 42 27 67 126 86
95 19 108 26 89 50 -12 13 -31 15 -119 12 -92 -3 -106 -1 -109 13 -5 24 71 50
128 43 25 -2 78 -7 118 -11z m-2657 -11 c-7 -2 -18 1 -23 6 -8 8 -4 9 13 5 13
-4 18 -8 10 -11z m603 -6 c23 -10 40 -27 56 -60 22 -47 22 -48 5 -103 -14 -45
-16 -74 -11 -154 7 -97 7 -98 -21 -129 -40 -45 -94 -50 -165 -17 -29 14 -70
32 -90 40 -41 17 -77 62 -61 78 6 6 29 1 64 -15 97 -43 166 -61 182 -48 16 13
37 105 37 159 0 33 0 33 -25 17 -18 -12 -35 -14 -67 -9 -62 11 -95 30 -123 75
-45 71 -34 116 40 161 37 23 130 25 179 5z m146 4 c0 -5 -7 -10 -16 -10 -8 0
-12 5 -9 10 3 6 10 10 16 10 5 0 9 -4 9 -10z m-1323 -22 c-3 -8 -6 -5 -6 6 -1
11 2 17 5 13 3 -3 4 -12 1 -19z m3405 -44 c-9 -15 -10 -15 -17 5 -4 13 -1 28
7 38 12 15 13 14 16 -5 2 -12 -1 -29 -6 -38z m-2082 26 c0 -5 -5 -10 -11 -10
-5 0 -7 5 -4 10 3 6 8 10 11 10 2 0 4 -4 4 -10z m711 -23 c-10 -9 -11 -8 -5 6
3 10 9 15 12 12 3 -3 0 -11 -7 -18z m-383 -83 c-10 -10 -28 6 -28 24 0 15 1
15 17 -1 9 -9 14 -19 11 -23z m-1358 12 c0 -3 -4 -8 -10 -11 -5 -3 -10 -1 -10
4 0 6 5 11 10 11 6 0 10 -2 10 -4z m2613 -46 c-3 -12 -8 -19 -11 -16 -5 6 5
36 12 36 2 0 2 -9 -1 -20z m-2063 6 c0 -2 -7 -7 -16 -10 -8 -3 -12 -2 -9 4 6
10 25 14 25 6z m-220 -53 c0 -5 -5 -15 -10 -23 -8 -12 -10 -11 -10 8 0 12 5
22 10 22 6 0 10 -3 10 -7z m1450 -3 c0 -5 -10 -10 -22 -9 -22 0 -22 1 -3 9 11
5 21 9 23 9 1 1 2 -3 2 -9z m825 -20 c3 -5 -1 -10 -9 -10 -9 0 -16 5 -16 10 0
6 4 10 9 10 6 0 13 -4 16 -10z m-2881 -65 c-6 -16 -24 -21 -24 -7 0 11 11 22
21 22 5 0 6 -7 3 -15z m1816 5 c0 -5 -9 -10 -21 -10 -11 0 -17 5 -14 10 3 6
13 10 21 10 8 0 14 -4 14 -10z m530 -20 c0 -5 -12 -10 -27 -9 -25 0 -26 1 -8
9 27 12 35 12 35 0z m-1966 -9 c7 -11 -22 -23 -35 -15 -5 3 -7 10 -4 15 8 12
32 12 39 0z m2161 -11 c3 -6 -1 -7 -9 -4 -18 7 -21 14 -7 14 6 0 13 -4 16 -10z
m663 -16 c1 -14 -2 -23 -8 -19 -12 7 -14 45 -2 45 4 0 9 -11 10 -26z m-2415
-1 c-7 -2 -19 -2 -25 0 -7 3 -2 5 12 5 14 0 19 -2 13 -5z m639 -35 c-18 -19
-22 -20 -22 -6 0 9 8 21 17 27 27 15 29 3 5 -21z m668 -42 c0 -8 -7 -16 -15
-20 -13 -4 -14 -2 -5 14 13 23 20 26 20 6z m-750 -166 c0 -13 -11 -13 -30 0
-12 8 -11 10 8 10 12 0 22 -4 22 -10z m-319 -53 c-16 -16 -26 0 -10 19 9 11
15 12 17 4 2 -6 -1 -17 -7 -23z"/>
<path d="M3067 1370 c-16 -5 -35 -14 -44 -22 -14 -11 -13 -13 8 -19 48 -14
126 -10 140 7 10 13 10 17 -2 25 -8 5 -22 9 -31 9 -9 0 -22 2 -30 4 -7 2 -26
0 -41 -4z"/>
<path d="M4035 1258 c-77 -12 -94 -27 -72 -62 42 -63 177 -28 177 46 0 32 -3
32 -105 16z"/>
<path d="M1890 1322 c-45 -22 -50 -52 -15 -98 39 -50 83 -44 116 17 14 27 -8
86 -35 93 -29 8 -27 8 -66 -12z"/>
</g>
</svg>
