<svg xmlns="http://www.w3.org/2000/svg" width="312" height="175" viewBox="0 0 125.5 125.5" enable-background="new 0 0 125.5 125.5"><circle fill="#fb1541" cx="62.7" cy="62.7" r="62.7"/><path fill="#a11f00" d="m120.8 38.9l-30.6-20v54.2h-9.1v30.4l-45.5.6 32.2 21.1c32.3-2.6 57.7-29.6 57.7-62.5 0-8.4-1.7-16.4-4.7-23.8"/><path fill="#152137" d="m92.1 100.3c0 2.5-2 4.5-4.5 4.5h-49.7c-2.5 0-4.5-2-4.5-4.5v-77.9c0-2.5 2-4.5 4.5-4.5h49.7c2.5 0 4.5 2 4.5 4.5v77.9"/><path fill="#173057" d="m87.6 17.9h-24.8v86.9h24.8c2.5 0 4.5-2 4.5-4.5v-77.9c0-2.5-2-4.5-4.5-4.5"/><path fill="#f1f1df" d="m39.9 24.3h45.8v65.9h-45.8z"/><path fill="#fd3000" d="m54.6 20.5h16.2v1.8h-16.2z"/><path fill="#b90b00" d="m62.7 20.5h8.1v1.8h-8.1z"/><path fill="#fda329" d="m67.2 97.1c0 2.4-2 4.4-4.4 4.4-2.4 0-4.4-2-4.4-4.4 0-2.4 2-4.4 4.4-4.4 2.4 0 4.4 1.9 4.4 4.4"/><path fill="#f37b01" d="m62.9 92.7c0 0-.1 0-.1 0v8.8c0 0 .1 0 .1 0 2.4 0 4.4-2 4.4-4.4 0-2.5-2-4.4-4.4-4.4"/><path fill="#fffff3" d="m62.7 24.3h22.9v65.9h-22.9z"/></svg>