<svg xmlns="http://www.w3.org/2000/svg" width="312" height="175" viewBox="0 0 125.6 125.6" enable-background="new 0 0 125.6 125.6"><circle fill="#e63709" cx="62.8" cy="62.8" r="62.8"/><path fill="#c00a00" d="m125.1 55.5l-48-31.7v19.5h-1.5v1.8h-15.6v62.6l22.1 14.8c25.2-8.1 43.5-31.8 43.5-59.8 0-2.4-.2-4.8-.5-7.2"/><path fill="#efc211" d="m62.6 19.9c-30.8 0-28.8 35.5-24.3 43.9 3.7 6.8 8.5 9.1 8.5 17.9 0 0 0 .2 0 .4h30.4c0-.2 0-.3 0-.4-.1-7.4 3.1-9.1 8.5-17.9 4.9-8.1 7.4-43.9-23.1-43.9"/><path fill="#f69e24" d="m62.9 19.9v69.1h14.3c0-4.1 0-7 0-7.3-.1-7.4 3.1-9.1 8.5-17.9 4.9-8.1 7.4-43.6-22.8-43.9"/><g fill="#58301e"><path d="m46.8 81.7c0 .4 0 6.2 0 13.1h30.3c0-6.8 0-12.7 0-13.1h-30.3"/><path d="m56.5 104.2h11l9.7-9.4-19-1.3-11.4 1.3z"/></g><path fill="#3b2313" d="m62.9 81.7v13.1h14.2c0-6.8 0-12.7 0-13.1h-14.2"/><path fill="#fff" d="m56.5 104.2c1.1 2.3 2.7 3.9 5.5 3.9 2.8 0 4.4-1.8 5.5-3.9h-11"/><path fill="#3b2313" d="m67.5 104.2l9.7-9.4-14.3-.9v10.3z"/></svg>