<svg xmlns="http://www.w3.org/2000/svg" width="312" height="175" viewBox="0 0 1200 1200" enable-background="new 0 0 1200 1200"><path fill="#fc7f0b" d="m787.22 941.21c-12.789 0-25.569 3.794-38.36 3.794h-.573c-3.121 0-6.089-2.894-8.976-3.595-4.866 3.69-10.759 3.595-17.01 3.595h-463.79c-15.398 0-25.516-8.927-25.516-24.326v-637.71c0-15.399 10.118-27.961 25.516-27.961h463.79c15.399 0 27.693 12.562 27.693 27.961v43.43c17 .086 24.26.136 35.859.136 13.538 0 26.27-.051 39.81-.126 3.923 0 10.331.586 10.331 1.489v-189.86c0-63.41-50.28-124.03-113.69-124.03h-463.79c-63.41 0-111.52 60.61-111.52 124.03v927.58c0 63.41 48.1 120.39 111.52 120.39h463.79c63.41 0 113.69-56.978 113.69-120.39v-129.43c0 .974-6.314 1.639-10.361 1.639-13.504-.118-25.392 3.385-38.42 3.385m-369.28-807.21h144.94c8.15 0 14.489 9.346 14.489 17.496 0 8.158-6.34 17.504-14.489 17.504h-144.94c-8.15 0-14.489-9.346-14.489-17.504-.0001-8.15 6.339-17.496 14.489-17.496m72.47 1004.07c-39.856 0-72.47-32.607-72.47-72.46 0-39.856 32.616-72.46 72.47-72.46s72.47 32.607 72.47 72.46c0 39.856-32.616 72.46-72.47 72.46"/><path d="m1053.87 588.73c.021-3.766-1.07-5.397-4.824-6.457-16.914-4.773-33.685-10.06-50.594-14.85-4.365-1.238-6.657-3.279-8.168-7.751-3.244-9.598-7.608-18.813-11.07-28.347-.849-2.342-.876-5.791.254-7.913 8.816-16.559 17.935-32.96 27.15-49.3 1.635-2.899 1.496-4.634-.951-6.999-8.722-8.429-17.18-17.13-25.767-25.702-11.484-11.458-22.997-22.887-34.627-34.457-1.851.977-3.578 1.858-5.278 2.789-15.257 8.35-30.604 16.544-45.703 25.17-4.168 2.382-7.312 2.543-11.755.476-9.01-4.19-18.379-7.667-27.789-10.885-3.442-1.177-5.03-2.932-5.974-6.217-5.076-17.643-10.401-35.21-15.396-52.88-.978-3.459-2.509-4.54-6.067-4.52-26.611.148-53.22.189-79.83-.033-4.166-.034-5.759 1.379-6.837 5.172-5.02 17.658-10.196 35.28-15.648 52.805-.661 2.123-3.01 4.355-5.132 5.28-9.834 4.292-19.95 7.937-29.768 12.264-3.208 1.414-5.472 1.463-8.553-.279-16.16-9.137-32.431-18.09-48.811-26.827-1.654-.882-5.19-.79-6.362.364-20.346 20.04-40.459 40.31-60.962 60.87 9.668 17.644 19.04 35.02 28.73 52.21 2.02 3.573 1.82 6.161-.114 9.627-5.135 9.202-10.176 18.496-14.493 28.1-1.737 3.862-3.853 5.712-7.734 6.755-18.483 4.97-36.872 10.289-55.38 15.16-3.765.991-4.944 2.506-4.922 6.331.154 26.611.156 53.22-.002 79.83-.023 3.834 1.191 5.351 4.921 6.346 19.06 5.084 38.05 10.435 56.996 15.914 1.903.55 4.075 2.247 4.932 3.996 4.976 10.162 9.416 20.587 14.442 30.723 1.566 3.159 1.684 5.44-.024 8.562-8.723 15.943-17.04 32.11-25.837 48.01-2.112 3.82-1.558 5.961 1.443 8.889 16.244 15.852 32.31 31.887 48.33 47.964 3.831 3.844 7.256 8.091 10.748 12.02 18.836-10.294 36.37-19.763 53.764-29.483 3.303-1.846 5.784-1.778 9.1.0001 9.625 5.172 19.361 10.181 29.32 14.668 3.272 1.475 4.771 3.172 5.675 6.503 4.962 18.282 10.326 36.457 15.177 54.767 1.235 4.662 3.278 5.971 8.04 5.923 26.02-.263 52.05-.243 78.07-.011 4.444.039 5.916-1.497 7-5.589 4.903-18.5 10.1-36.924 15.482-55.29.65-2.22 2.666-4.725 4.719-5.733 9.978-4.898 20.268-9.161 30.26-14.03 3.184-1.55 5.563-1.562 8.645.121 15.949 8.713 32.08 17.1 47.996 25.865 3.466 1.909 5.522 1.968 8.471-1.049 18.6-19.03 37.36-37.909 56.27-56.628 3.01-2.981 2.907-5.069.982-8.503-8.982-16.02-17.629-32.24-26.525-48.31-1.528-2.76-1.795-4.901-.442-8.04 4.02-9.309 7.658-18.806 10.893-28.416 1.372-4.075 3.13-6.444 7.486-7.671 17.11-4.819 34.06-10.179 51.15-15.06 3.645-1.042 4.932-2.566 4.908-6.418-.168-26.607-.16-53.22-.001-79.83m-267.37 206.87c-92.46-.669-166.84-75.35-166.53-167.19.313-92.51 75.17-167.06 167.49-166.81 92.8.253 166.98 75.05 166.68 168.06-.291 91.88-75.78 166.61-167.64 165.94"/><path d="m849.34 563.89c-2.01.351-3.01.22-3.502.662-2.889 2.614-7.351 5-8.01 8.158-.722 3.439 1.052 8.621 3.579 11.316 11.901 12.691 24.439 24.785 36.741 37.1 8.601 8.611 8.556 13.315-.193 22.07-12.165 12.176-24.378 24.305-36.487 36.537-5.779 5.838-6.06 12.149-1.032 16.999 4.864 4.688 10.947 4.359 16.587-1.245 18.17-18.06 36.29-36.18 54.36-54.34 5.985-6.02 6.081-12.02.211-17.928-18.19-18.318-36.433-36.591-54.816-54.718-2.233-2.203-5.448-3.41-7.437-4.612"/><path d="m701.68 606.66c7.741-7.748 15.53-15.45 23.2-23.27 3.427-3.495 5.151-8.01 2.41-12.254-2.114-3.271-5.869-5.482-9-8.258-3.814 2.01-6.841 2.844-8.792 4.766-18.945 18.67-37.773 37.46-56.48 56.37-4.875 4.926-4.809 11.259.108 16.226 18.577 18.763 37.28 37.4 56 56.02 4.04 4.01 8.821 4.984 13.893 1.954 6.601-3.943 7.299-11.946 1.342-17.998-12.758-12.964-25.722-25.725-38.544-38.627-6.741-6.782-6.679-12.268.106-19.15 5.217-5.293 10.505-10.516 15.759-15.774"/><path d="m796.12 562.9c-5.226-.17-9.304 3.429-10.998 9.597-5.164 18.814-10.245 37.651-15.339 56.48-5.196 19.21-10.457 38.4-15.509 57.649-2.076 7.909 3.01 14.718 10.528 14.645 5.32-.052 9.189-3.323 10.922-9.678 10.369-38.02 20.701-76.05 30.926-114.11.575-2.14.601-4.712-.007-6.828-1.462-5.093-5.358-7.589-10.523-7.757"/></svg>