<svg xmlns="http://www.w3.org/2000/svg" viewBox="0 0 491.9 436.2" enable-background="new 0 0 491.9 436.2"><path fill="#ba68c8" d="m71 193.9h349.5v241h-349.5z"/><path fill="#9c27b0" d="m249.5 193.9h170.9v241h-170.9z"/><path fill="#e57373" d="M13.6 220.5 248.3 0 482.9 220.5z"/><path fill="#cb1b13" d="m249.5 1.2v219.3h233.4z"/><path fill="#4c4a49" d="m211.5 314h69.4v122.2h-69.4z"/><g fill="#fffff3"><path d="m106.9 263.4h70.3v66.1h-70.3z"/><path d="m314.1 263.4h70.3v66.1h-70.3z"/></g><g fill="#ffeb3b"><path d="m57.4 435v-80l-18.4-18.7-17.7 18.7v80z"/><path d="m122.2 435v-80l-18.4-18.7-17.7 18.7v80z"/></g><g fill="#e65100"><path d="m0 362.6h122.4v13.1h-122.4z"/><path d="m0 397.8h122.4v13.1h-122.4z"/></g><g fill="#ffeb3b"><path d="m470.5 435v-80l-17.6-18.7-18.4 18.7v80z"/><path d="m405.8 435v-80l-17.7-18.7-18.4 18.7v80z"/></g><g fill="#e65100"><path d="m369.5 362.6h122.3v13.1h-122.3z"/><path d="m369.5 397.8h122.3v13.1h-122.3z"/></g></svg>