<svg xmlns="http://www.w3.org/2000/svg" viewBox="0 0 1024 768" enable-background="new 0 0 1024 768"><path fill="#e57373" d="m504.5 167.1c-143.7 0-134.5 174.9-113.3 215.9 17.2 33.4 39.7 44.6 39.7 88.3 0 .2 0 .9 0 1.8h142c0-1 0-1.6 0-1.8-.6-36.6 14.5-44.6 39.7-88.3 23.1-39.9 34.4-215.9-108.1-215.9"/><path fill="#f44336" d="m506.3 167.1v340.2h66.6c0-20.1.1-34.7 0-36-.6-36.6 14.5-44.6 39.7-88.3 23-39.8 34.3-214.5-106.3-215.9"/><g fill="#9e9e9e"><path d="m430.9 471.3c0 1.9 0 30.7.1 64.3h141.8c.1-33.6.1-62.4.1-64.3h-142"/><path d="m476.1 581.8l51.6-.1 45.1-46.1-88.9-6.3-52.9 6.3z"/></g><path fill="#212121" d="m506.3 471.3v64.3h66.5c.1-33.6.1-62.4.1-64.3h-66.6"/><path fill="#fff" d="m476.1 581.8c5.1 11.1 12.6 19 25.7 19 13.1 0 20.7-8.8 25.9-19.2l-51.6.2"/><path fill="#212121" d="m527.7 581.7l45.1-46.1-66.5-4.7v50.8z"/><path fill="#ba68c8" d="m328.1 359.8h349.5v241h-349.5z"/><path fill="#9c27b0" d="m506.6 359.8h170.9v241h-170.9z"/><path fill="#e57373" d="M270.8 386.4 505.4 165.9 740 386.4z"/><path fill="#cb1b13" d="m506.6 167.1v219.3h233.4z"/><path fill="#4c4a49" d="m468.6 479.9h69.4v122.2h-69.4z"/><g fill="#fffff3"><path d="m364.1 429.3h70.3v66.1h-70.3z"/><path d="m571.2 429.3h70.3v66.1h-70.3z"/></g><g fill="#ffeb3b"><path d="m314.5 600.9v-80.1l-18.4-18.6-17.6 18.6v80.1z"/><path d="m379.3 600.9v-80.1l-18.4-18.6-17.7 18.6v80.1z"/></g><g fill="#e65100"><path d="m257.1 528.4h122.4v13.1h-122.4z"/><path d="m257.1 563.7h122.4v13.1h-122.4z"/></g><g fill="#ffeb3b"><path d="m727.7 600.9v-80.1l-17.7-18.6-18.4 18.6v80.1z"/><path d="m662.9 600.9v-80.1l-17.7-18.6-18.4 18.6v80.1z"/></g><g fill="#e65100"><path d="m626.7 528.4h122.3v13.1h-122.3z"/><path d="m626.7 563.7h122.3v13.1h-122.3z"/></g></svg>