<svg xmlns="http://www.w3.org/2000/svg" viewBox="0 0 312 175" enable-background="new 0 0 312 175"><path d="m64.7 13.9c-1.2 0-2.2 1-2.2 2.2v64.4h-20c-1.1 0-1.9.9-1.9 1.9v69.9c0 1.1.9 1.9 1.9 1.9h42.3v5.7c0 .7.6 1.3 1.3 1.3h25.4c.7 0 1.3-.6 1.3-1.3v-24h13.8 24.2 12v11.7h-10.5l-1.2.3v4.7c0 0 1.3 1.4 2 1.4h23.5 69.2 23.5c.7 0 2-1.4 2-1.4v-4.7l-1.2-.3h-10.5v-57.7c0-1.5-1.1-2.7-2.5-2.7h-42.1v-71.1c0-1.2-1-2.2-2.2-2.2h-148.1m48.1 105.1h9.2c0 .4 0 1-.1 1.7-.2 2.7-.5 6.9-1.2 8-.8 1.3-5.8 4.3-7.9 5.5 0-.1 0-15.2 0-15.2m42.7 0h7.4v14.1c-2.4-1.4-5.5-3.4-6.1-4.4-.7-1.1-1-5.3-1.2-8-.1-.7-.1-1.3-.1-1.7"/><path fill="#404040" d="m64.6 17.4h148.2v99.2h-148.2z"/><g transform="translate(-162.34-72.839)"><path fill="#fff" d="m233.9 161.1h41.7v21.3h-41.7z"/><path d="m234.3 120.8h133.1v35.4h-133.1z"/><path fill="#bcbcbc" d="m326.9 161.1h40.2v21.3h-40.2z"/><g fill="#fff"><path d="m233.9 97.2h54.9v18.4h-54.9z"/><path d="m294 97.2h73.4v18.4h-73.4z"/><path d="m280 161.1h41.7v21.3h-41.7z"/></g></g><g transform="translate(-281.79-96.73)"><path d="m404.1 213.5l-.3 1.5c0 0-.3 8.7-1.3 10.4-1 1.7-8.9 6-8.9 6v1.1h14.8 24.2 14.8v-1.1c0 0-7.9-4.4-8.9-6-1-1.7-1.3-10.4-1.3-10.4l-.3-1.5-16.4.3-16.4-.3"/><path fill="#c4c4c4" d="m404.1 213.5l-.3 1.5c0 0 0 1-.1 2.4h33.6c-.1-1.4-.1-2.4-.1-2.4l-.3-1.5-16.4.3-16.4-.3"/><path d="m346.5 110.6c-1.2 0-2.2 1-2.2 2.2v100.7c0 1.2 1 2.2 2.2 2.2h148.1c1.2 0 2.2-1 2.2-2.2v-100.7c0-1.2-1-2.2-2.2-2.2 0 0-148.1 0-148.1 0m2.6 5.6h142.9v93.9h-142.9c0 0 0-93.9 0-93.9"/></g><path fill="#004b85" d="m42.8 85.3h52.4v64.5h-52.4z"/><g transform="translate(-162.34-72.839)"><path d="m210 182.2h43.4v23.5h-43.4z"/><g fill="#fff"><path d="m210 163.4h43.4v7.2h-43.4z"/><path d="m210 172.7h43.4v7.2h-43.4z"/><path d="m210 207.5h13.6v12.3h-13.6z"/><path d="m240.3 207.5h13.1v12.3h-13.1z"/><path d="m225 207.5h13.6v12.3h-13.6z"/></g></g><path fill="#7f8081" d="m1387.4 69.7c-1.1 0-1.9.9-1.9 1.9v69.9c0 1.1.9 1.9 1.9 1.9h54.3c1.1 0 1.9-.9 1.9-1.9v-69.9c0-1.1-.9-1.9-1.9-1.9h-54.3m0 .1h54.3c1 0 1.8.8 1.8 1.8v69.9c0 1-.8 1.8-1.8 1.8h-54.3c-1 0-1.8-.8-1.8-1.8v-69.9c0-1 .8-1.8 1.8-1.8" transform="translate(-1344.88 10.776)"/><g transform="translate(-162.34-72.839)"><path stroke="#474e5e" d="m204.9 153.4c-1 0-1.9.8-1.9 1.8v69.9c0 1 .8 1.8 1.9 1.8h54.3c1 0 1.9-.8 1.9-1.8v-69.9c0-1-.8-1.8-1.9-1.8h-54.3zm3 7.7h48.3v58.3h-48.3c0 0 0-58.3 0-58.3z"/><circle fill="#374054" stroke="#bec1c7" stroke-width=".9" stroke-linejoin="round" cx="232.1" cy="223.1" r="2.4"/></g><path fill="#004b85" d="m86 117.5h25.7v38.7h-25.7z"/><g transform="matrix(.47996 0 0 .7112 410.49 402.11)"><path d="m-670.9-377.2h43.4v23.5h-43.4z"/><g fill="#fff"><path d="m-670.9-396.1h43.4v7.2h-43.4z"/><path d="m-670.9-386.7h43.4v7.2h-43.4z"/></g><path fill="#bcbcbc" d="m-671-352v10.2h15 2.8 10.8 14.8v-10.2h-14.8-10.8-2.8-15"/></g><g transform="translate(-1372.1-13.768)"><path fill="#7f8081" d="m1458.2 128.5c-.7 0-1.3.6-1.3 1.3v43.8c0 .7.6 1.3 1.3 1.3h25.4c.7 0 1.3-.6 1.3-1.3v-43.8c0-.7-.6-1.3-1.3-1.3h-25.4m0 .1h25.4c.7 0 1.2.5 1.2 1.2v43.8c0 .7-.5 1.2-1.2 1.2h-25.4c-.7 0-1.2-.5-1.2-1.2v-43.8c0-.7.6-1.2 1.2-1.2"/><g><path d="m1458.2 128.5c-.7 0-1.2.6-1.2 1.2v43.8c0 .7.6 1.2 1.2 1.2h25.4c.7 0 1.2-.6 1.2-1.2v-43.8c0-.7-.6-1.2-1.2-1.2h-25.4m.9 4h23.6v36.3h-23.6v-36.3"/><circle fill="#374054" stroke="#bec1c7" stroke-width=".596" stroke-linejoin="round" cx="1470.9" cy="171.8" r="1.6"/></g></g><path fill="#404040" d="m165.6 89.7h91.4v60.1h-91.4z"/><g transform="matrix(.60173 0 0 .60173 907.04 605.26)"><path fill="#fff" d="m-1222.9-784.4h41.7v21.3h-41.7z"/><path d="m-1222.5-824.7h133.1v35.4h-133.1z"/><g fill="#fff"><path d="m-1129.9-784.4h40.2v21.3h-40.2z"/><path d="m-1222.9-848.3h54.9v18.4h-54.9z"/><path d="m-1162.8-848.3h73.4v18.4h-73.4z"/><path d="m-1176.8-784.4h41.7v21.3h-41.7z"/></g></g><g transform="translate(996.31 4.803)"><path d="m-830.9 82.5c-1.4 0-2.5 1.1-2.5 2.5v59.8c0 1.4 1.1 2.5 2.5 2.5h91.7c1.4 0 2.5-1.1 2.5-2.5v-59.9c0-1.4-1.1-2.5-2.5-2.5h-91.7zm1.7 4.1h88.3v58.2h-88.3v-58.2"/><path fill="#808080" d="m-830.9 82.4c-1.4 0-2.5 1.2-2.5 2.7v59.7c0 1.5 1.1 2.7 2.5 2.7h91.7c1.4 0 2.5-1.2 2.5-2.7v-59.7c0-1.5-1.1-2.7-2.5-2.7 0 0-91.7 0-91.7 0m0 .1h91.7c1.3 0 2.4 1.1 2.4 2.5v59.7c0 1.4-1.1 2.5-2.4 2.5h-91.7c-1.3 0-2.4-1.1-2.4-2.5v-59.6c0-1.4 1.1-2.6 2.4-2.6"/></g><g transform="translate(-162.34-72.839)"><path d="m314.7 220.4l-1.2.3v4.7c0 0 1.3 1.4 2 1.4h23.5 69.2 23.5c.7 0 2-1.4 2-1.4v-4.7l-1.2-.3h-24.3-69.2c0 0-24.3 0-24.3 0"/><path fill="#6b6b6b" d="m369.5 220.4l1.1 1.1h3 1.6 3l1.1-1.1h-4.2-1.6-4"/></g></svg>