<svg xmlns="http://www.w3.org/2000/svg" viewBox="0 0 144 648" enable-background="new 0 0 144 648" xmlns:xlink="http://www.w3.org/1999/xlink"><defs><path id="1" d="m60 80.1c.2-.2.6-.2.8 0 .2.2.2.5 0 .7l-2.3 2.1c-.2.2-.6.2-.8 0-.2-.2-.2-.5 0-.7l2.3-2.1" fill="#375d70"/><path id="2" d="m61.1 60.4c.2.2.2.5 0 .7-.2.2-.6.2-.8 0l-2.4-2.1c-.2-.2-.2-.5 0-.7.2-.2.6-.2.8 0l2.4 2.1" fill="#375d70"/></defs><ellipse fill="#378662" cx="72.5" cy="61.8" rx="70.7" ry="61.8"/><path fill="#06522f" d="m140.5 44.7l-22.1-12v.2h-5.4v4.5h-39.7v33.9h-22.4v15.3c8.2 1.8 8.2 13 0 14.7v.7l36.4 20.2c32-6 55.9-30.8 55.9-60.5 0-5.8-.9-11.5-2.7-17"/><path fill="#0e2038" d="m89.5 98.7v-6.3h-4.2v6.3h-2.7v3.8h9.6v-3.8z"/><g fill="#3a495d"><path d="m100.1 89.1c0 3.4-3.2 6.2-7.1 6.2h-41c-3.9 0-7.1-2.8-7.1-6.2v-35.8c0-3.4 3.2-6.2 7.1-6.2h41c3.9 0 7.1 2.8 7.1 6.2v35.8"/><path d="m64 40.4h16v14h-16z"/></g><g fill="#0e2038"><path d="m93 47.1h-20.6v14.3h.1v34h20.5c3.9 0 7.1-2.8 7.1-6.2v-35.9c0-3.5-3.2-6.2-7.1-6.2"/><path d="m72.4 40.4h7.6v14h-7.6z"/></g><path fill="#f3cf0a" d="m22.9 32.7v1.8c0 3.4 3.2 6.2 7.1 6.2h81.3c3.9 0 7.1-2.8 7.1-6.2v-1.8h-95.5"/><path fill="#efc211" d="m72.4 32.7v8h38.9c3.9 0 7.1-2.8 7.1-6.2v-1.8h-46"/><path fill="#3a495d" d="m57.8 98.4v-6.3h-4.3v6.3h-2.6v3.7h9.6v-3.7z"/><ellipse fill="#d0bab3" cx="72" cy="70.7" rx="19.5" ry="17"/><ellipse fill="#fffff3" cx="72" cy="70.7" rx="17.6" ry="15.4"/><path fill="#eff3f3" d="m72.4 55.3v30.7c9.5-.2 17.2-7 17.2-15.4 0-8.3-7.7-15.1-17.2-15.3"/><path fill="#375d70" d="m86.1 82.3c.2.2.2.5 0 .7-.2.2-.6.2-.8 0l-2.4-2c-.2-.2-.2-.5 0-.7.2-.2.6-.2.8 0l2.4 2"/><use xlink:href="#1"/><path fill="#375d70" d="m85.1 58.2c.2-.2.6-.2.8 0 .2.2.2.5 0 .7l-2.3 2.1c-.2.2-.6.2-.8 0-.2-.2-.2-.5 0-.7l2.3-2.1"/><use xlink:href="#2"/><use xlink:href="#1"/><path fill="#375d70" d="m85.1 58.2c.2-.2.6-.2.8 0 .2.2.2.5 0 .7l-2.3 2.1c-.2.2-.6.2-.8 0-.2-.2-.2-.5 0-.7l2.3-2.1"/><use xlink:href="#2"/><path fill="#375d70" d="m72.6 87.6c0 .3-.3.5-.6.5-.3 0-.6-.2-.6-.5v-2.9c0-.3.3-.5.6-.5.3 0 .6.2.6.5v2.9" id="0"/><g fill="#375d70"><path d="m55.9 70c.3 0 .6.2.6.5 0 .3-.3.5-.6.5h-3.3c-.3 0-.6-.2-.6-.5 0-.3.3-.5.6-.5h3.3"/><path d="m91.4 70c.3 0 .6.2.6.5 0 .3-.3.5-.6.5h-3.3c-.3 0-.6-.2-.6-.5 0-.3.3-.5.6-.5h3.3"/><path d="m72.6 56.6c0 .3-.3.5-.6.5-.3 0-.6-.2-.6-.5v-2.9c0-.3.3-.5.6-.5.3 0 .6.2.6.5v2.9"/></g><use xlink:href="#0"/><use xlink:href="#1"/><path fill="#375d70" d="m85.1 58.2c.2-.2.6-.2.8 0 .2.2.2.5 0 .7l-2.3 2.1c-.2.2-.6.2-.8 0-.2-.2-.2-.5 0-.7l2.3-2.1"/><use xlink:href="#2"/><path fill="#db3d2d" d="m72.7 70l-1.6 1.4-8.6-8.9z"/><ellipse fill="#002237" cx="71.9" cy="70.7" rx="2.1" ry="1.8"/><ellipse fill="#fffff3" cx="71.9" cy="70.7" rx="1.4" ry="1.2"/><path fill="#002237" d="m72 52.1c-11.7 0-21.2 8.3-21.2 18.5 0 10.2 9.5 18.5 21.2 18.5 11.7 0 21.2-8.3 21.2-18.5 0-10.2-9.5-18.5-21.2-18.5m0 35.6c-10.8 0-19.5-7.6-19.5-17 0-9.4 8.7-17 19.5-17 10.8 0 19.5 7.6 19.5 17 0 9.4-8.7 17-19.5 17"/><ellipse fill="#efbe9d" cx="71.9" cy="191" rx="70.7" ry="61.8"/><path fill="#ca9372" d="m139.9 174l-36.9-21.1v1.4c1.4.7 2.4 2.2 2 3.7-.4 1.5-1.1 2.9-2 4.2v15.6h-19.9c-4.6 3.5-9 7.1-13.5 10.7-.5.6-.9 1.2-1.4 1.8v8.5h-6.9c-1 1.2-2 2.3-3.1 3.4-7.6 8.1-15.8 15.6-25.4 21.9-.9.6-1.8.7-2.6.5v4.2l42.5 24.3c38.6-.5 69.8-27.9 69.8-61.8.1-6.2-.9-11.9-2.6-17.3"/><path fill="#58301e" d="m31 218.3l-1.7 1.3c-2.6 2.3-2.6 6 0 8.3 2.6 2.3 6.9 2.3 9.5 0l3.3-3-1.7 1.6-9.4-8.2"/><path fill="#3b2313" d="m68.9 200.1l-7.3-6.3-3.5 2.8 7.5 6.6z"/><path fill="#399549" d="m37 213.4l-6 4.9 9.4 8.2 1.7-1.6 6.1-5.7-8.8-7.7z"/><path fill="#58301e" d="m110.6 194.5c11.5-10.1 11.5-26.5 0-36.6-11.5-10.1-30.3-10.1-41.8 0-9.8 8.6-11.3 21.8-4.3 31.7-1-.5-2.4-.4-3.3.4-1.1.9-1.1 2.4 0 3.3l.5.4 7.3 6.4-3.3 3-7.5-6.6-21.2 16.9 2.4-1.9 8.8 7.7 20.6-19.1.7.6c1.1.9 2.8.9 3.8 0 .8-.7 1-1.8.6-2.6 11.5 6.3 26.7 5.1 36.7-3.6m-36.8-4.4c-8.8-7.7-8.8-20.1 0-27.8 8.8-7.7 23-7.7 31.7 0 8.8 7.7 8.8 20.1 0 27.8-8.7 7.6-22.9 7.6-31.7 0"/><path fill="#cccdcd" d="m105.5 162.3c-8.8-7.7-23-7.7-31.7 0-8.8 7.7-8.8 20.1 0 27.8 8.8 7.7 23 7.7 31.7 0 8.8-7.7 8.8-20.1 0-27.8m-30.1 26.4c-7.9-6.9-7.9-18 0-24.9 7.9-6.9 20.6-6.9 28.5 0 7.9 6.9 7.9 18 0 24.9-7.9 6.8-20.6 6.8-28.5 0"/><path fill="#fffff3" d="m103.9 163.8c-7.9-6.9-20.6-6.9-28.5 0-7.9 6.9-7.9 18 0 24.9 7.9 6.9 20.6 6.9 28.5 0 7.9-6.9 7.9-18.1 0-24.9"/><path fill="#e8e8e0" d="m103.9 163.8c-.1 0-.1-.1-.2-.1l-28.4 24.9c0 0 .1.1.2.1 7.9 6.9 20.6 6.9 28.5 0 7.8-6.9 7.8-18.1-.1-24.9"/><path fill="#d57e44" d="m42.1 224.9l-1.7 1.6z"/><path fill="#3b2313" d="m40.4 226.5l-4.3-3.8-6.3 5.5c2.6 1.9 6.6 1.8 9.1-.3l1.5-1.4"/><path fill="#240d13" d="m62 200.1l3.6 3.1 3.3-3.1-3.5-3z"/><path fill="#22752f" d="m36.1 222.7l4.3 3.8 1.7-1.6 6.1-5.7-4-3.5z"/><g fill="#3b2313"><path d="m62 200.1l-17.8 15.6 4 3.5 20.7-19.1-3.3 3.1z"/><path d="m110.6 194.5c11.5-10.1 11.5-26.5 0-36.6-.1-.1-.1-.1-.2-.2l-5 4.4c.1.1.1.1.2.2 8.8 7.7 8.8 20.1 0 27.8-8.8 7.7-23 7.7-31.7 0-.1-.1-.1-.1-.2-.2l-8.2 7.2 4.1 3.6c1.1.9 2.8.9 3.8 0 .8-.7 1-1.8.6-2.6 11.4 6.3 26.6 5.1 36.6-3.6"/></g><path fill="#b5baba" d="m105.5 162.3c-.1-.1-.1-.1-.2-.2l-1.6 1.4c.1.1.1.1.2.2 7.9 6.9 7.9 18 0 24.9-7.9 6.9-20.6 6.9-28.5 0-.1-.1-.1-.1-.2-.2l-1.6 1.4c.1.1.1.1.2.2 8.8 7.7 23 7.7 31.7 0 8.8-7.6 8.8-20 0-27.7"/><ellipse fill="#523852" cx="73.1" cy="320.6" rx="70.9" ry="62"/><path fill="#290d29" d="m143.3 311.7l-42.7-23.8-.1 12.4c6.6 7.5 10.7 17.5 9.3 26.9-.8 5.1-1.9 11.3-5 16.2-1.9 5.5-5.5 10.5-11 13.4-8.2 4.5-21.5 3.5-30-1.8-2.1.2-4.3 0-6.3-.4h-9v.9l43.5 24.8c30.1-7.2 52.2-31.2 52.2-59.8-.2-2.9-.5-5.9-.9-8.8"/><path fill="#0f2138" d="m73.1 287.9c-20.9 0-37.9 14.9-37.9 33.2 0 18.3 17 33.2 37.9 33.2 20.9 0 37.9-14.9 37.9-33.2.1-18.4-16.9-33.2-37.9-33.2m0 62c-18.2 0-33-12.9-33-28.8 0-15.9 14.8-28.8 33-28.8 18.2 0 33 12.9 33 28.8 0 15.9-14.7 28.8-33 28.8"/><g fill="#e63612"><path d="m73 280.1c-25.8 0-46.9 18.4-46.9 41 0 22.6 21 41 46.9 41 25.8 0 46.9-18.4 46.9-41 0-22.7-21-41-46.9-41m0 74.1c-20.9 0-37.9-14.9-37.9-33.2 0-18.3 17-33.2 37.9-33.2 20.9 0 37.9 14.9 37.9 33.2.1 18.3-17 33.2-37.9 33.2"/><path d="m73.1 341.2c-12.8 0-23.1-9-23.1-20.2 0-11.2 10.3-20.2 23.1-20.2 12.8 0 23.1 9 23.1 20.2 0 11.2-10.3 20.2-23.1 20.2"/></g><ellipse fill="#fffff3" cx="73.1" cy="321" rx="14.2" ry="12.4"/><path fill="#0f2138" d="m66 326.8h61v23.5h-61z"/><path fill="#fffff3" d="m125.2 346.8h-57.5v-16.4h57.5v16.4"/><path fill="#0f2138" d="m96 327.3h1.7v20.6h-1.7z"/><g fill="#fffff3"><ellipse cx="68.5" cy="328.5" rx="1.1" ry="1"/><ellipse cx="75.5" cy="328.5" rx="1.1" ry="1"/><ellipse cx="82.5" cy="328.5" rx="1.1" ry="1"/><ellipse cx="89.5" cy="328.5" rx="1.1" ry="1"/><path d="m97.7 328.5c0 .5-.5 1-1.1 1-.6 0-1.1-.4-1.1-1 0-.5.5-1 1.1-1 .6 0 1.1.5 1.1 1"/><ellipse cx="103.5" cy="328.5" rx="1.1" ry="1"/><ellipse cx="110.5" cy="328.5" rx="1.1" ry="1"/><ellipse cx="117.5" cy="328.5" rx="1.1" ry="1"/><ellipse cx="124.5" cy="328.5" rx="1.1" ry="1"/><ellipse cx="68.5" cy="348.8" rx="1.1" ry="1"/><ellipse cx="75.5" cy="348.8" rx="1.1" ry="1"/><ellipse cx="82.5" cy="348.8" rx="1.1" ry="1"/><ellipse cx="89.5" cy="348.8" rx="1.1" ry="1"/><path d="m97.7 348.8c0 .5-.5 1-1.1 1-.6 0-1.1-.4-1.1-1 0-.5.5-1 1.1-1 .6 0 1.1.4 1.1 1"/><ellipse cx="103.5" cy="348.8" rx="1.1" ry="1"/><ellipse cx="110.5" cy="348.8" rx="1.1" ry="1"/><ellipse cx="117.5" cy="348.8" rx="1.1" ry="1"/><ellipse cx="124.5" cy="348.8" rx="1.1" ry="1"/></g><ellipse fill="#523852" cx="72.4" cy="455" rx="70.7" ry="61.8"/><path fill="#290d29" d="m140.3 438l-18.3-10.5v21.7h-97.2v39.6l49 28c38.4-.6 69.3-28 69.3-61.8 0-5.9-1-11.6-2.8-17"/><g fill="#fbf9a4"><path d="m31.5 423.3h14.9v3.4h-14.9z"/><path d="m99.7 423.3h14.9v3.4h-14.9z"/></g><path fill="#e9e9e9" d="m125.4 484.3c0 3.2-3 5.8-6.6 5.8h-90c-3.7 0-6.6-2.6-6.6-5.8v-51.8c0-3.2 3-5.8 6.6-5.8h90.1c3.7 0 6.6 2.6 6.6 5.8v51.8z"/><path fill="#354c59" d="m125.4 461.5v-25.7c0-3.2-3-5.8-6.6-5.8h-90c-3.7 0-6.6 2.6-6.6 5.8v25.7h103.2"/><path fill="#78b0d2" d="m125.4 458.2v-25.7c0-3.2-3-5.8-6.6-5.8h-90c-3.7 0-6.6 2.6-6.6 5.8v25.7h103.2"/><path fill="#0f2138" d="m93.3 459.2c0 3.2-3 5.8-6.6 5.8h-25.5c-3.7 0-6.6-2.6-6.6-5.8v-.2c0-3.2 3-5.8 6.6-5.8h25.5c3.7 0 6.6 2.6 6.6 5.8v.2"/><path fill="#fff" d="m83.1 459.2c0 1.5-1.4 2.7-3.1 2.7h-12.1c-1.7 0-3.1-1.2-3.1-2.7v-.1c0-1.5 1.4-2.7 3.1-2.7h12.1c1.7-.1 3.1 1.1 3.1 2.8"/><path fill="#78b0d2" d="m62 432.8v-13.1h20.8v13.1h8.3v-20.4h-37.4v20.4z"/><ellipse fill="#f69e24" cx="70.7" cy="586.2" rx="70.7" ry="61.8"/><path fill="#c37104" d="m140.8 578.6l-32-17.2v42h-77.6l-1.2 19.2 43.5 25.3c37.7-1.3 67.8-28.4 67.8-61.7 0-2.6-.2-5.1-.5-7.6"/><g fill="#fffff3"><path d="m35.3 624.5c.2 1 1.2 1.9 2.4 1.9h7.2c1.2 0 2.2-.8 2.4-1.9h-12"/><path d="m47.3 560.5c0 1.2-1.1 2.1-2.4 2.1h-7.2c-1.3 0-2.4-.9-2.4-2.1 0-1.2 1.1-2.1 2.4-2.1h7.2c1.3 0 2.4.9 2.4 2.1"/></g><g fill="#58301e"><path d="m114.4 617.9c0 3.7-3.5 6.8-7.7 6.8h-71.8c-4.3 0-7.7-3-7.7-6.8v-50.2c0-3.7 3.5-6.8 7.7-6.8h71.8c4.3 0 7.7 3 7.7 6.8v50.2"/><path d="m84.9 564c0 0 0-3.5 0-7.7 0-1.3-.7-2.5-2.2-3.6-1.5-1-3.6-1.7-6.1-1.7h-11.8c-2.5 0-4.7.7-6.1 1.6-1.5 1-2.1 2.1-2.1 3.2 0 4 0 7.2 0 7.2h-5.5c0 0 0-3.3 0-7.2 0-2.9 1.8-5.4 4.4-7 2.5-1.7 5.9-2.6 9.5-2.6h11.8c3.6 0 7 1 9.5 2.8 2.5 1.8 4.3 4.4 4.3 7.3 0 4.2 0 7.7 0 7.7h-5.7"/></g><path fill="#895d3b" d="m35.3 560.9h12v63.7h-12z"/><g fill="#fffff3"><path d="m106.1 560.5c0 1.2-1.1 2.1-2.4 2.1h-7.2c-1.3 0-2.4-.9-2.4-2.1 0-1.2 1.1-2.1 2.4-2.1h7.2c1.3 0 2.4.9 2.4 2.1"/><path d="m94.1 624.5c.2 1 1.2 1.9 2.4 1.9h7.2c1.2 0 2.2-.8 2.4-1.9h-12"/></g><path fill="#895d3b" d="m94.1 560.9h12v63.7h-12z"/></svg>