<svg xmlns="http://www.w3.org/2000/svg" width="312" height="175" viewBox="0 0 125.6 125.6" enable-background="new 0 0 125.6 125.6"><circle fill="#fd7513" cx="62.8" cy="62.8" r="62.8"/><path fill="#ee5a28" d="m123.6 46.9l-34.7-21.5.7 56.3h-22.6v20.5h-32.7l35.9 23.1c31.2-3.6 55.5-30.2 55.5-62.4-.1-5.6-.8-10.9-2.1-16"/><path fill="#2b2c39" d="m92.7 32.4v-2.3c0-2.8-2.3-5-5-5h-49.8c-2.8 0-5 2.3-5 5v2.3h59.8"/><path fill="#161822" d="m87.7 25h-25.2v7.4h30.3v-2.3c-.1-2.8-2.3-5.1-5.1-5.1"/><path fill="#fffff3" d="M32.9,32.1v66.4c0,2.8,2.3,5,5,5h49.8c2.8,0,5-2.3,5-5V32.1H32.9z"/><path fill="#e6e5cb" d="m62.7 32.1v71.5h25c2.8 0 5-2.3 5-5v-66.5h-30"/><g fill="#2aa7de"><path d="m37.4 33.9h50.7v3.4h-50.7z"/><path d="m37.5 40.2h50.6v12.3h-50.6z"/></g><path fill="#ae1e3a" d="m37.5 56.7h11.8v11.8h-11.8z"/><path fill="#f89500" d="m56.9 56.7h11.8v11.8h-11.8z"/><path fill="#2b2c39" d="m76.3 56.7h11.8v11.8h-11.8z"/><g fill="#2aa7de"><path d="m37.4 73.4h11.8v3.4h-11.8z"/><path d="m37.4 80.5h9.3v3.4h-9.3z"/><path d="m37.5 87.7h5.6v3.4h-5.6z"/><path d="m55.4 73.4h11.8v3.4h-11.8z"/><path d="m55.4 80.5h7.8v3.4h-7.8z"/><path d="m55.4 87.7h11.8v3.4h-11.8z"/><path d="m37.4 95h50.7v3.4h-50.7z"/><path d="m75.7 73.4h8.3v3.4h-8.3z"/><path d="m75.7 80.5h12.4v3.4h-12.4z"/><path d="m75.7 87.7h8.5v3.4h-8.5z"/></g></svg>